<svg xmlns="http://www.w3.org/2000/svg" width="480" height="142" viewBox="0 0 480 142" role="img" aria-label="Top programming languages">
<clipPath id="bar"><rect width="480" height="10" rx="5.0"/></clipPath>
<g clip-path="url(#bar)">
<rect x="0.00" y="0" width="223.47" height="10" fill="#8ed345"/>
<rect x="223.47" y="0" width="126.20" height="10" fill="#f34b7d"/>
<rect x="349.68" y="0" width="65.83" height="10" fill="#5192c7"/>
<rect x="415.51" y="0" width="22.82" height="10" fill="#1a1aff"/>
<rect x="438.33" y="0" width="8.23" height="10" fill="#41d751"/>
<rect x="446.56" y="0" width="8.04" height="10" fill="#a165c4"/>
<rect x="454.60" y="0" width="5.85" height="10" fill="#dc933d"/>
<rect x="460.46" y="0" width="5.26" height="10" fill="#51e0b3"/>
<rect x="465.72" y="0" width="14.28" height="10" fill="#8b949e"/>
<rect x="480.00" y="0" width="0.00" height="10" fill="#8b949e"/>
</g>
<g font-family="-apple-system,BlinkMacSystemFont,'Segoe UI',Helvetica,Arial,sans-serif" font-size="12" fill="#c9d1d9">
<circle cx="6" cy="28" r="5" fill="#8ed345"/>
<text x="19" y="32">TeX 46.6%</text>
<circle cx="6" cy="50" r="5" fill="#f34b7d"/>
<text x="19" y="54">C++ 26.3%</text>
<circle cx="6" cy="72" r="5" fill="#5192c7"/>
<text x="19" y="76">Python 13.7%</text>
<circle cx="6" cy="94" r="5" fill="#1a1aff"/>
<text x="19" y="98">Lua 4.8%</text>
<circle cx="6" cy="116" r="5" fill="#41d751"/>
<text x="19" y="120">Makefile 1.7%</text>
<circle cx="246" cy="28" r="5" fill="#a165c4"/>
<text x="259" y="32">Kotlin 1.7%</text>
<circle cx="246" cy="50" r="5" fill="#dc933d"/>
<text x="259" y="54">CMake 1.2%</text>
<circle cx="246" cy="72" r="5" fill="#51e0b3"/>
<text x="259" y="76">Shell 1.1%</text>
<circle cx="246" cy="94" r="5" fill="#8b949e"/>
<text x="259" y="98">Other 3.0%</text>
</g></svg>
